<?xml version="1.0" encoding="UTF-8"?>
<svg id="Layer_2" data-name="Layer 2" xmlns="http://www.w3.org/2000/svg" viewBox="0 0 2760.45 447.32">
  <defs>
    <style>
      .cls-1 {
        stroke-width: 0px;
      }
    </style>
  </defs>
  <g id="Layer_1-2" data-name="Layer 1">
    <g>
      <path class="cls-1" d="M28.25,416.51C9.24,396.48,0,366.69,0,327.14v-105.8c0-73.44,38-108.88,111.96-108.88h13.35l-9.76,61.11c-37.49,1.03-53.41,15.41-53.41,53.93v102.71c0,44.68,26.71,53.93,49.3,53.93h96.55c32.87,0,50.33-17.46,50.33-50.84v-180.78l61.63-35.95v244.46c-2.57,48.28-32.87,86.28-96.04,86.28h-96.55c-36.98,0-78.58-10.27-99.12-30.81ZM173.07,24.65h52.9v51.87h-52.9V24.65Z"/>
      <path class="cls-1" d="M382.61,237.27V7.7l60.09,35.95v200.29c0,31.84,17.46,48.79,50.33,48.79h34.92v63.17h-33.38c-75.49,0-111.96-39.03-111.96-118.63Z"/>
      <path class="cls-1" d="M703.59,292.73v-64.71c0-44.68-35.44-79.09-73.44-79.09-14.38,0-26.19,4.62-43.65,12.84l-25.68-60.09c25.16-12.33,48.28-18.49,67.79-18.49,85.77,0,136.61,68.82,136.61,138.15v71.39h64.71v63.17h-317.39v-63.17h191.05ZM591.12,390.31h52.9v51.87h-52.9v-51.87Z"/>
      <path class="cls-1" d="M901.83,243.95v-92.96l60.09-35.95v122.23c0,24.65-2.57,36.46-7.7,55.47h76.52v63.17h-216.21v-63.17h36.98c32.87,0,50.33-16.95,50.33-48.79ZM901.83,24.65h52.9v51.87h-52.9V24.65Z"/>
      <path class="cls-1" d="M1062.07,235.73c0-51.87,5.14-81.14,27.22-107.85,22.08-26.19,50.33-34.41,95.52-34.41,68.3,0,111.96,34.41,111.96,117.09v82.17h64.71v63.17h-346.15v-63.17h53.92c-5.14-20.54-7.19-34.41-7.19-57.01ZM1171.97,292.73h63.17v-82.17c0-33.38-17.46-50.84-50.33-50.84h-10.78c-32.87,0-50.33,17.46-50.33,50.33v28.76c0,44.68,26.19,53.93,48.28,53.93ZM1158.1,0h52.9v51.87h-52.9V0Z"/>
      <path class="cls-1" d="M1410.27,243.95V43.65l60.09-35.95v229.57c0,79.6-36.46,118.63-111.96,118.63h-12.33v-63.17h13.87c32.87,0,50.33-16.95,50.33-48.79Z"/>
      <path class="cls-1" d="M1594.13,7.7v348.2h-61.11V44.17l61.11-36.46Z"/>
      <path class="cls-1" d="M1720.98,237.27V7.7l60.09,35.95v200.29c0,31.84,17.46,48.79,50.33,48.79h34.92v63.17h-33.38c-75.49,0-111.96-39.03-111.96-118.63Z"/>
      <path class="cls-1" d="M1945.92,243.95v-92.96l60.09-35.95v122.23c0,79.6-36.46,118.63-111.96,118.63h-43.14v-63.17h44.68c32.87,0,50.33-16.95,50.33-48.79ZM1860.16,390.31h52.9v51.87h-52.9v-51.87ZM1930,390.31h52.9v51.87h-52.9v-51.87Z"/>
      <path class="cls-1" d="M2068.67,237.27V7.7l60.09,35.95v200.29c0,31.84,17.46,48.79,50.33,48.79h34.92v63.17h-33.38c-75.49,0-111.96-39.03-111.96-118.63Z"/>
      <path class="cls-1" d="M2413.28,292.73v-24.65c0-48.28-30.81-86.28-74.47-86.28-11.3,0-25.16,4.62-42.11,13.87l-50.84-40.57L2331.1,3.08h74.47l-58.03,105.8c35.44,3.6,60.09,12.84,87.82,44.68,25.68,30.81,40.06,66.76,40.06,106.82v32.35h53.41v63.17h-330.23v-63.17h214.67Z"/>
      <path class="cls-1" d="M2698.82,292.73v-64.71c0-44.68-35.44-79.09-73.44-79.09-14.38,0-26.19,4.62-43.65,12.84l-25.68-60.09c25.17-12.33,48.28-18.49,67.79-18.49,85.77,0,136.61,68.82,136.61,138.15v134.56h-247.03v-63.17h185.4Z"/>
    </g>
  </g>
</svg>