<?xml version="1.0" encoding="UTF-8"?>
<svg id="Layer_2" data-name="Layer 2" xmlns="http://www.w3.org/2000/svg" viewBox="0 0 2203.35 444.24">
  <defs>
    <style>
      .cls-1 {
        stroke-width: 0px;
      }
    </style>
  </defs>
  <g id="Layer_1-2" data-name="Layer 1">
    <g>
      <path class="cls-1" d="M17.72,357.54c-11.92-12.56-17.72-31.25-17.72-56.05v-66.36c0-46.06,23.84-68.29,70.22-68.29h8.38l-6.12,38.33c-23.51.64-33.5,9.66-33.5,33.82v64.42c0,28.02,16.75,33.82,30.92,33.82h60.56c20.62,0,31.57-10.95,31.57-31.89v-113.39l38.65-22.55v153.33c-1.61,30.28-20.62,54.12-60.24,54.12h-60.56c-23.19,0-49.28-6.44-62.17-19.33ZM108.56,111.76h33.18v32.53h-33.18v-32.53Z"/>
      <path class="cls-1" d="M239.98,245.11V101.13l37.69,22.55v125.63c0,19.97,10.95,30.6,31.57,30.6h21.9v39.62h-20.94c-47.35,0-70.22-24.48-70.22-74.41Z"/>
      <path class="cls-1" d="M441.31,279.9v-40.59c0-28.02-22.23-49.61-46.06-49.61-9.02,0-16.43,2.9-27.38,8.05l-16.11-37.69c15.78-7.73,30.28-11.6,42.52-11.6,53.79,0,85.68,43.16,85.68,86.65v44.77h40.59v39.62h-199.07v-39.62h119.83ZM370.76,341.11h33.18v32.53h-33.18v-32.53Z"/>
      <path class="cls-1" d="M565.65,249.3v-58.3l37.69-22.55v76.66c0,15.46-1.61,22.87-4.83,34.79h48v39.62h-135.61v-39.62h23.19c20.62,0,31.57-10.63,31.57-30.6ZM565.65,111.76h33.18v32.53h-33.18v-32.53Z"/>
      <path class="cls-1" d="M666.15,244.15c0-32.53,3.22-50.9,17.07-67.65,13.85-16.43,31.57-21.58,59.91-21.58,42.84,0,70.22,21.58,70.22,73.44v51.54h40.59v39.62h-217.11v-39.62h33.82c-3.22-12.89-4.51-21.58-4.51-35.76ZM735.09,279.9h39.62v-51.54c0-20.94-10.95-31.89-31.57-31.89h-6.76c-20.62,0-31.57,10.95-31.57,31.57v18.04c0,28.02,16.43,33.82,30.28,33.82ZM726.39,96.29h33.18v32.53h-33.18v-32.53Z"/>
      <path class="cls-1" d="M884.55,249.3v-125.63l37.69-22.55v143.99c0,49.93-22.87,74.41-70.22,74.41h-7.73v-39.62h8.7c20.62,0,31.57-10.63,31.57-30.6Z"/>
      <path class="cls-1" d="M999.87,101.13v218.4h-38.33V124l38.33-22.87Z"/>
      <path class="cls-1" d="M1079.44,245.11V101.13l37.69,22.55v125.63c0,19.97,10.95,30.6,31.57,30.6h21.9v39.62h-20.94c-47.35,0-70.22-24.48-70.22-74.41Z"/>
      <path class="cls-1" d="M1220.53,249.3v-58.3l37.69-22.55v76.66c0,49.93-22.87,74.41-70.22,74.41h-27.06v-39.62h28.02c20.62,0,31.57-10.63,31.57-30.6ZM1166.73,341.11h33.18v32.53h-33.18v-32.53ZM1210.54,341.11h33.18v32.53h-33.18v-32.53Z"/>
      <path class="cls-1" d="M1297.51,245.11V101.13l37.69,22.55v125.63c0,19.97,10.95,30.6,31.57,30.6h21.9v39.62h-20.94c-47.35,0-70.22-24.48-70.22-74.41Z"/>
      <path class="cls-1" d="M1513.66,279.9v-15.46c0-30.28-19.33-54.12-46.71-54.12-7.09,0-15.78,2.9-26.41,8.7l-31.89-25.45,53.47-95.35h46.71l-36.4,66.36c22.23,2.26,37.69,8.05,55.08,28.02,16.11,19.33,25.13,41.88,25.13,67v20.29h33.5v39.62h-207.12v-39.62h134.65Z"/>
      <path class="cls-1" d="M1692.76,279.9v-40.59c0-28.02-22.23-49.61-46.06-49.61-9.02,0-16.43,2.9-27.38,8.05l-16.11-37.69c15.78-7.73,30.28-11.6,42.52-11.6,53.79,0,85.68,43.16,85.68,86.65v84.4h-154.94v-39.62h116.29Z"/>
    </g>
    <g>
      <path class="cls-1" d="M2050.94,239.46c34.73-24.42,71.68-25.99,110.25-10.66,1.57.63,3.23,1.16,4.68,2.06.82.51,2.68,1.56,2.99,2.51.44,1.34-.93,4.16-1.3,5.52-1.13,4.18-2.28,8.35-3.43,12.52-5.82,21.04-11.8,42.04-17.78,63.03l-.09.32c-.7,2.45-1.39,4.9-2.09,7.35-7.03,24.64-14.03,49.28-20.76,74-1.89,6.92-5.31,10.11-11.86,11.52-50.37,10.85-100.73,10.81-151.12.17-6.82-1.44-10.67-4.67-12.69-12.04-14.02-50.98-28.36-101.88-43.28-152.61-2.67-9.08-.36-12.73,7.86-15.59,35.3-12.28,69.55-13.19,102,8.33,10,6.63,15.25,14.89,15.34,28.09.19,28.02,2.6,56.02,4.18,84.03.17,3.04.79,6.06,3.15,9.03,1.63-30.21,3.63-60.42,4.69-90.65.36-10.27,1.24-19.66,9.28-26.96l-.02.02Z"/>
      <path class="cls-1" d="M1927.57,402.63c-.24.71,9.96,7.35,10.95,7.95,4.14,2.5,8.5,4.61,13.02,6.31,9.27,3.49,19.2,5.01,28.98,6.34,1.47.2,2.95.39,4.42.59,44.95,5.92,89.85,5.85,134.09-5.4,10.02-2.55,19.32-7.96,32-13.34.67-.28,3.64,3.2,4.1,3.67,1.9,1.94,4.45,4.14,4.61,7.04.09,1.58-.61,3.11-1.48,4.42-5.93,8.93-18.13,10.19-27.59,12.75-12.11,3.27-24.37,6.13-36.84,7.63-36.28,4.36-73.09,5.12-109.38.52-12.78-1.62-25.8-3.75-38.35-6.73-9.23-2.19-18.41-5.72-25.37-12.16-1.28-1.18-2.51-2.52-3.01-4.19-.92-3.07.9-6.31,3.15-8.59s5-4.13,6.71-6.84c0,0,0,0,0,.01Z"/>
      <path class="cls-1" d="M2051.98,0c24.24,17.78,26.9,38.1,7.97,60.26-6.65,7.78-14.69,14.35-21.74,21.82-6.79,7.19-13.64,14.44-19.52,22.36-8.84,11.93-10.08,25.21-2.59,40.53-20.26-17.21-23.31-36.72-9.2-55.64,6.08-8.16,13.91-15.04,21.06-22.38,5.68-5.83,11.86-11.21,17.28-17.26,13.25-14.8,18.97-30.85,6.74-49.69Z"/>
      <path class="cls-1" d="M2146.23,369.87c.48-4.64.87-10.59,4.3-14.16s9.79-4.23,14.56-4.77c11.64-1.41,17.84-7.54,19.14-17.9,2.07-16.45,3.8-33.1,3.52-49.63-.25-14.16-3.14-14.99-16.48-9.22.25-.11.8-2.05.97-2.39.43-.85.95-1.63,1.49-2.41,1.14-1.64,2.39-3.18,3.79-4.61,2.79-2.83,6.09-5.16,9.7-6.83,1.7-.79,3.56-1.44,5.42-1.23,3.18.35,7.46,3.74,7.98,7.03,2.41,15.04,3.48,30.36,2.18,45.56-.66,7.7-1.93,15.34-3.89,22.82-1.67,6.37-3.37,14.11-7.56,19.35-2.99,3.74-7.41,6.06-11.82,7.93-6.73,2.86-13.76,4.94-20.78,6.95-4.16,1.19-8.33,2.36-12.51,3.5Z"/>
      <path class="cls-1" d="M2036.99,175.53c-7.51-17.43-5.78-33.03,5.15-46.98,6.1-7.78,13.71-14.36,19.85-22.12,6.29-7.94,11.6-16.66,17.14-24.74,9.85,9.5,10.48,18.74.14,30.09-3.34,3.66-6.95,7.11-10.7,10.34-16.55,14.24-29.43,30.63-31.57,53.41Z"/>
      <path class="cls-1" d="M2051.03,239.4c1.65-4.62,2.93-9.87,6.25-13.63,12.26-13.87,28.86-20.51,46.45-23.62,8.91-1.57,17.89-2.72,26.89-3.69,4.5-.48,9-.92,13.51-1.34,4.06-.38,8.11-1.15,12.2-1.21,1.16-.02,1.31-.2,1.51.84.13.68-.21,1.64-.37,2.29-.38,1.53-.95,2.99-1.41,4.49-.73,2.43-1.72,4.96-3.58,6.76-2.89,2.81-7.96,1.87-11.55,1.54-.79-.07-1.58-.15-2.37-.22-22.53-2.18-44.86-1.49-65.21,9.32-8.59,4.56-15.14,12.06-22.32,18.45Z"/>
      <path class="cls-1" d="M1913.79,198.58c33.23-5.06,93.72,7.61,103.95,33.03-10.89-5.32-21.84-13.31-33.94-15.92-16.37-3.53-33.73-4.53-50.49-3.54-11.92.7-17.7-2.24-19.52-13.58Z"/>
      <path class="cls-1" d="M1932.97,179.51s.03-.01.04-.02c.2-.09.43-.05.65-.02,12.35,1.97,24.58,4.27,36.41,8.44,6.16,2.17,12.17,4.79,17.92,7.89,2.93,1.58,5.79,3.27,8.57,5.09,1.43.93,2.85,1.9,4.24,2.89.89.64,3.18,3.07,4.2,3.13-3.31-.23-4.39-.13-5.36-.39-19.03-5.13-38.1-10.09-57.01-15.62-4.29-1.25-8.03-4.2-11.77-6.56-.14-.09-.29-.19-.33-.34-.05-.17.04-.34.12-.49.61-1.15,1.23-2.29,1.84-3.44.12-.22.25-.46.47-.57Z"/>
      <path class="cls-1" d="M2069.97,204c2.02-.43,5.02-3.67,6.84-4.83,2.75-1.76,5.6-3.38,8.51-4.86,5.71-2.9,11.67-5.28,17.76-7.25,4.69-1.52,9.52-2.56,14.31-3.67,3.33-.77,6.61-1.77,9.89-2.71,3.84-1.1,9.89-2.93,12.85.91,1.39,1.8-3.24,5.65-4.55,6.62-3.53,2.63-7.62,3.18-11.78,4.14-4.82,1.12-9.66,2.2-14.5,3.26-9.41,2.06-18.84,4.04-28.27,6.02-3.69.78-7.38,1.56-11.07,2.35Z"/>
    </g>
  </g>
</svg>